Coordinates
version=1
nRows=13
nColumns=38
inDegrees=no

Units are S.I. units (second, meters, Newtons, ...)
If the header above contains a line with 'inDegrees', this indicates whether rotational values are in degrees (yes) or radians (no).

endheader
time	pelvis_tilt	pelvis_list	pelvis_rotation	pelvis_tx	pelvis_ty	pelvis_tz	hip_flexion_r	hip_adduction_r	hip_rotation_r	knee_angle_r	ankle_angle_r	subtalar_angle_r	mtp_angle_r	hip_flexion_l	hip_adduction_l	hip_rotation_l	knee_angle_l	ankle_angle_l	subtalar_angle_l	mtp_angle_l	lumbar_extension	lumbar_bending	lumbar_rotation	arm_flex_r	arm_add_r	arm_rot_r	elbow_flex_r	pro_sup_r	wrist_flex_r	wrist_dev_r	arm_flex_l	arm_add_l	arm_rot_l	elbow_flex_l	pro_sup_l	wrist_flex_l	wrist_dev_l
1.13	-2.91478	1.11361	1.50384	0.587672	0.186969	1.01046	0.64208	0.0304942	-0.0648675	0.279706	-0.134236	0	0	0.613429	-0.108966	0.0930474	1.09524	-0.505981	0	0	0.47463	0.110679	-0.0741028	-0.177928	-0.348857	0.368096	0.343619	0.996902	0	0	-0.262785	-0.118759	-0.522047	0.356283	1.11261	0	0
1.14	-2.92043	1.11723	1.51109	0.586605	0.175421	1.01228	0.625199	0.0304765	-0.0665779	0.276376	-0.128988	0	0	0.631076	-0.103648	0.0810057	1.11497	-0.443175	0	0	0.472873	0.107476	-0.0667513	-0.175616	-0.348583	0.359332	0.339451	0.999505	0	0	-0.262208	-0.122163	-0.51612	0.355834	1.11013	0	0
1.15	-2.92647	1.12392	1.51579	0.585375	0.163662	1.01429	0.604881	0.0317153	-0.0673748	0.27301	-0.124324	0	0	0.649409	-0.103887	0.0523854	1.1345	-0.400171	0	0	0.467144	0.104874	-0.0583838	-0.171879	-0.34882	0.352356	0.33643	1.00252	0	0	-0.263591	-0.125659	-0.509102	0.357288	1.11017	0	0
1.16	-2.94244	1.12597	1.52822	0.584231	0.151853	1.01623	0.589934	0.0293319	-0.0651373	0.271005	-0.120961	0	0	0.663842	-0.0967043	0.038139	1.13837	-0.363521	0	0	0.468782	0.0986438	-0.0472818	-0.16981	-0.348122	0.346306	0.331926	1.00576	0	0	-0.26638	-0.129299	-0.50401	0.356989	1.11009	0	0
1.17	-2.96225	1.12604	1.54117	0.582987	0.139855	1.01804	0.576898	0.0267848	-0.0596165	0.268991	-0.118529	0	0	0.67766	-0.0909587	0.0209462	1.13489	-0.333868	0	0	0.47323	0.0920343	-0.0336669	-0.169096	-0.347596	0.339696	0.329063	1.00961	0	0	-0.271294	-0.13222	-0.501373	0.358168	1.10915	0	0
1.18	-2.97474	1.12869	1.55043	0.582005	0.128517	1.01991	0.560987	0.0252011	-0.0581821	0.26573	-0.117075	0	0	0.690255	-0.0865779	0.0101865	1.12815	-0.317398	0	0	0.47202	0.0868279	-0.0246734	-0.165864	-0.348328	0.334253	0.329212	1.01295	0	0	-0.274704	-0.134168	-0.499972	0.361758	1.10834	0	0
1.19	-2.98487	1.13416	1.55794	0.581154	0.117501	1.02195	0.542249	0.0240178	-0.0586032	0.262099	-0.116166	0	0	0.700255	-0.0837147	-0.00154607	1.11824	-0.300133	0	0	0.465963	0.0822081	-0.0166451	-0.16101	-0.349363	0.328349	0.33086	1.01635	0	0	-0.276587	-0.135834	-0.497847	0.365955	1.10835	0	0
1.2	-2.9957	1.14023	1.56541	0.580367	0.106486	1.02401	0.522836	0.0226729	-0.0600006	0.258317	-0.115719	0	0	0.707682	-0.0819972	-0.0158835	1.10371	-0.277761	0	0	0.458851	0.0774839	-0.00794186	-0.156567	-0.350325	0.320158	0.334102	1.02112	0	0	-0.278087	-0.137452	-0.495061	0.370089	1.10907	0	0
1.21	-3.00757	1.14449	1.57326	0.579624	0.0955066	1.02587	0.504943	0.0210229	-0.0615349	0.252977	-0.116483	0	0	0.715566	-0.0803373	-0.0299796	1.08413	-0.255868	0	0	0.453921	0.0724764	0.00125161	-0.153511	-0.351583	0.311226	0.339619	1.02613	0	0	-0.280026	-0.138807	-0.492748	0.374717	1.11027	0	0
1.22	-3.02174	1.14529	1.58402	0.578978	0.0847121	1.02748	0.490924	0.0178508	-0.0623429	0.247995	-0.117952	0	0	0.721985	-0.0749902	-0.0325238	1.05412	-0.2348	0	0	0.453247	0.0660689	0.00987448	-0.151432	-0.35263	0.303056	0.346102	1.02965	0	0	-0.282147	-0.14013	-0.491182	0.378925	1.11174	0	0
1.23	-3.03199	1.14992	1.58953	0.578292	0.0737674	1.02909	0.472484	0.0171053	-0.063656	0.242407	-0.119686	0	0	0.730527	-0.0761875	-0.0542087	1.03028	-0.217977	0	0	0.447131	0.0620906	0.0189255	-0.149896	-0.354785	0.29235	0.356938	1.03438	0	0	-0.284021	-0.140747	-0.489184	0.385361	1.11425	0	0
1.24	-3.04524	1.15051	1.59904	0.577767	0.0631635	1.03043	0.458785	0.0142597	-0.0641348	0.237216	-0.121505	0	0	0.735582	-0.0720448	-0.0578919	0.992616	-0.20283	0	0	0.445537	0.056307	0.0269747	-0.148525	-0.356805	0.283665	0.368052	1.03891	0	0	-0.285201	-0.141464	-0.487502	0.389945	1.11716	0	0
1.25	-3.05771	1.1526	1.60693	0.577252	0.0525034	1.03171	0.443301	0.012119	-0.0643978	0.23157	-0.123687	0	0	0.740586	-0.0700569	-0.0700933	0.954696	-0.190008	0	0	0.441665	0.0513715	0.0356925	-0.148296	-0.359375	0.272525	0.382455	1.04622	0	0	-0.285351	-0.141677	-0.486135	0.394634	1.1205	0	0
